<svg xmlns="http://www.w3.org/2000/svg" xmlns:xlink="http://www.w3.org/1999/xlink" xmlns:lucid="lucid" width="1519.5" height="640"><g transform="translate(-20 -20)" lucid:page-tab-id="0_0"><path d="M40 40h280v282H40z" stroke="#333" fill="#83e0e1"/><path d="M40 77.6h280M40 124h280" stroke="#333" fill="none"/><use xlink:href="#a" transform="matrix(1,0,0,1,48,48) translate(93.07499999999999 14.6)"/><use xlink:href="#b" transform="matrix(1,0,0,1,52,85.6) translate(0 19.1)"/><use xlink:href="#c" transform="matrix(1,0,0,1,52,85.6) translate(82.85000000000001 19.1)"/><use xlink:href="#d" transform="matrix(1,0,0,1,52,131.9947815072358) translate(0 19.000000000000007)"/><use xlink:href="#e" transform="matrix(1,0,0,1,52,131.9947815072358) translate(39.85 19.000000000000007)"/><use xlink:href="#f" transform="matrix(1,0,0,1,52,131.9947815072358) translate(92.75 19.000000000000007)"/><use xlink:href="#g" transform="matrix(1,0,0,1,52,131.9947815072358) translate(0 40.60000000000001)"/><use xlink:href="#e" transform="matrix(1,0,0,1,52,131.9947815072358) translate(39 40.60000000000001)"/><use xlink:href="#h" transform="matrix(1,0,0,1,52,131.9947815072358) translate(91.9 40.60000000000001)"/><use xlink:href="#i" transform="matrix(1,0,0,1,52,131.9947815072358) translate(0 62.20000000000001)"/><use xlink:href="#j" transform="matrix(1,0,0,1,52,131.9947815072358) translate(49.85000000000001 62.20000000000001)"/><use xlink:href="#k" transform="matrix(1,0,0,1,52,131.9947815072358) translate(0 83.80000000000003)"/><use xlink:href="#l" transform="matrix(1,0,0,1,52,131.9947815072358) translate(0 105.40000000000002)"/><use xlink:href="#m" transform="matrix(1,0,0,1,52,131.9947815072358) translate(42.95 105.40000000000002)"/><use xlink:href="#n" transform="matrix(1,0,0,1,52,131.9947815072358) translate(62.95 105.40000000000002)"/><use xlink:href="#o" transform="matrix(1,0,0,1,52,131.9947815072358) translate(0 127.00000000000001)"/><use xlink:href="#p" transform="matrix(1,0,0,1,52,131.9947815072358) translate(60.95 127.00000000000001)"/><use xlink:href="#q" transform="matrix(1,0,0,1,52,131.9947815072358) translate(0 148.6)"/><use xlink:href="#r" transform="matrix(1,0,0,1,52,131.9947815072358) translate(65.95 148.6)"/><use xlink:href="#s" transform="matrix(1,0,0,1,52,131.9947815072358) translate(98.55000000000001 148.6)"/><use xlink:href="#t" transform="matrix(1,0,0,1,52,131.9947815072358) translate(0 170.20000000000002)"/><path d="M439.5 300h280v160h-280z" stroke="#333" fill="#83e0e1"/><path d="M439.5 337.6h280m-280 61h280" stroke="#333" fill="none"/><use xlink:href="#u" transform="matrix(1,0,0,1,447.5,308) translate(93.05 14.6)"/><use xlink:href="#v" transform="matrix(1,0,0,1,447.5,308) translate(136 14.6)"/><use xlink:href="#u" transform="matrix(1,0,0,1,451.5,345.6) translate(0 15.299999999999999)"/><use xlink:href="#w" transform="matrix(1,0,0,1,451.5,345.6) translate(42.95 15.299999999999999)"/><use xlink:href="#x" transform="matrix(1,0,0,1,451.5,345.6) translate(111.80000000000001 15.299999999999999)"/><use xlink:href="#y" transform="matrix(1,0,0,1,451.5,345.6) translate(0 36.9)"/><use xlink:href="#w" transform="matrix(1,0,0,1,451.5,345.6) translate(46.95 36.9)"/><use xlink:href="#z" transform="matrix(1,0,0,1,451.5,345.6) translate(115.80000000000001 36.9)"/><use xlink:href="#A" transform="matrix(1,0,0,1,451.5,406.59478150723584) translate(0 15.299999999999999)"/><use xlink:href="#B" transform="matrix(1,0,0,1,451.5,406.59478150723584) translate(43.95 15.299999999999999)"/><use xlink:href="#C" transform="matrix(1,0,0,1,451.5,406.59478150723584) translate(86.9 15.299999999999999)"/><use xlink:href="#D" transform="matrix(1,0,0,1,451.5,406.59478150723584) translate(0 36.9)"/><use xlink:href="#E" transform="matrix(1,0,0,1,451.5,406.59478150723584) translate(58.900000000000006 36.9)"/><path d="M439.5 40h280v140h-280z" stroke="#333" fill="#83e0e1"/><path d="M439.5 77.6h280m-280 40.6h280" stroke="#333" fill="none"/><use xlink:href="#F" transform="matrix(1,0,0,1,447.5,48) translate(113.025 14.6)"/><use xlink:href="#u" transform="matrix(1,0,0,1,451.5,85.6) translate(0 16.1)"/><use xlink:href="#G" transform="matrix(1,0,0,1,451.5,85.6) translate(42.95 16.1)"/><use xlink:href="#b" transform="matrix(1,0,0,1,451.5,126.19999999999999) translate(0 16.299999999999997)"/><use xlink:href="#H" transform="matrix(1,0,0,1,451.5,126.19999999999999) translate(82.85000000000001 16.299999999999997)"/><use xlink:href="#x" transform="matrix(1,0,0,1,451.5,126.19999999999999) translate(156.70000000000002 16.299999999999997)"/><use xlink:href="#I" transform="matrix(1,0,0,1,451.5,126.19999999999999) translate(0 37.9)"/><use xlink:href="#E" transform="matrix(1,0,0,1,451.5,126.19999999999999) translate(48 37.9)"/><path d="M839.5 380h280v260h-280z" stroke="#333" fill="#83e0e1"/><path d="M839.5 417.6h280m-280 46.6h280" stroke="#333" fill="none"/><use xlink:href="#J" transform="matrix(1,0,0,1,847.5,388) translate(111.5 14.6)"/><use xlink:href="#K" transform="matrix(1,0,0,1,851.5,425.6) translate(0 19.1)"/><use xlink:href="#L" transform="matrix(1,0,0,1,851.5,425.6) translate(46 19.1)"/><use xlink:href="#M" transform="matrix(1,0,0,1,851.5,472.20000000000005) translate(0 19.300000000000004)"/><use xlink:href="#f" transform="matrix(1,0,0,1,851.5,472.20000000000005) translate(46.95 19.300000000000004)"/><use xlink:href="#K" transform="matrix(1,0,0,1,851.5,472.20000000000005) translate(0 40.900000000000006)"/><use xlink:href="#N" transform="matrix(1,0,0,1,851.5,472.20000000000005) translate(46 40.900000000000006)"/><use xlink:href="#j" transform="matrix(1,0,0,1,851.5,472.20000000000005) translate(84.2 40.900000000000006)"/><use xlink:href="#O" transform="matrix(1,0,0,1,851.5,472.20000000000005) translate(0 62.50000000000001)"/><use xlink:href="#P" transform="matrix(1,0,0,1,851.5,472.20000000000005) translate(59.9 62.50000000000001)"/><use xlink:href="#Q" transform="matrix(1,0,0,1,851.5,472.20000000000005) translate(0 84.10000000000002)"/><use xlink:href="#R" transform="matrix(1,0,0,1,851.5,472.20000000000005) translate(0 105.70000000000002)"/><use xlink:href="#S" transform="matrix(1,0,0,1,851.5,472.20000000000005) translate(0 127.30000000000001)"/><use xlink:href="#T" transform="matrix(1,0,0,1,851.5,472.20000000000005) translate(54.95 127.30000000000001)"/><use xlink:href="#x" transform="matrix(1,0,0,1,851.5,472.20000000000005) translate(102.9 127.30000000000001)"/><use xlink:href="#t" transform="matrix(1,0,0,1,851.5,472.20000000000005) translate(0 148.9)"/><path d="M1239.5 40h280v160h-280z" stroke="#333" fill="#83e0e1"/><path d="M1239.5 77.6h280m-280 39.4h280" stroke="#333" fill="none"/><use xlink:href="#U" transform="matrix(1,0,0,1,1247.5,48) translate(104.575 14.6)"/><use xlink:href="#V" transform="matrix(1,0,0,1,1251.5,85.6) translate(0 15.6)"/><use xlink:href="#c" transform="matrix(1,0,0,1,1251.5,85.6) translate(59.85 15.6)"/><use xlink:href="#V" transform="matrix(1,0,0,1,1251.5,124.99478150723581) translate(0 15.500000000000002)"/><use xlink:href="#e" transform="matrix(1,0,0,1,1251.5,124.99478150723581) translate(59.85 15.500000000000002)"/><use xlink:href="#f" transform="matrix(1,0,0,1,1251.5,124.99478150723581) translate(112.75 15.500000000000002)"/><use xlink:href="#V" transform="matrix(1,0,0,1,1251.5,124.99478150723581) translate(0 37.1)"/><use xlink:href="#W" transform="matrix(1,0,0,1,1251.5,124.99478150723581) translate(59.85 37.1)"/><use xlink:href="#h" transform="matrix(1,0,0,1,1251.5,124.99478150723581) translate(120.80000000000001 37.1)"/><use xlink:href="#t" transform="matrix(1,0,0,1,1251.5,124.99478150723581) translate(0 58.7)"/><path d="M1239.5 380h280v180h-280z" stroke="#333" fill="#83e0e1"/><path d="M1239.5 417.6h280m-280 38.9h280" stroke="#333" fill="none"/><g><use xlink:href="#X" transform="matrix(1,0,0,1,1247.5,388) translate(107.025 14.6)"/></g><g><use xlink:href="#S" transform="matrix(1,0,0,1,1251.5,425.6) translate(0 15.1)"/><use xlink:href="#Y" transform="matrix(1,0,0,1,1251.5,425.6) translate(54.95 15.1)"/></g><g><use xlink:href="#S" transform="matrix(1,0,0,1,1251.5,464.49478150723587) translate(0 15.19999999999999)"/><use xlink:href="#N" transform="matrix(1,0,0,1,1251.5,464.49478150723587) translate(54.95 15.19999999999999)"/><use xlink:href="#f" transform="matrix(1,0,0,1,1251.5,464.49478150723587) translate(93.15 15.19999999999999)"/><use xlink:href="#S" transform="matrix(1,0,0,1,1251.5,464.49478150723587) translate(0 36.79999999999999)"/><use xlink:href="#Z" transform="matrix(1,0,0,1,1251.5,464.49478150723587) translate(54.95 36.79999999999999)"/><use xlink:href="#j" transform="matrix(1,0,0,1,1251.5,464.49478150723587) translate(149.75 36.79999999999999)"/><use xlink:href="#aa" transform="matrix(1,0,0,1,1251.5,464.49478150723587) translate(0 58.39999999999999)"/><use xlink:href="#ab" transform="matrix(1,0,0,1,1251.5,464.49478150723587) translate(77.75 58.39999999999999)"/><use xlink:href="#t" transform="matrix(1,0,0,1,1251.5,464.49478150723587) translate(0 80)"/></g><path d="M839.5 40h280v201h-280z" stroke="#333" fill="#83e0e1"/><path d="M839.5 77.6h280m-280 38.4h280" stroke="#333" fill="none"/><g><use xlink:href="#K" transform="matrix(1,0,0,1,847.5,48) translate(88.025 14.6)"/><use xlink:href="#ac" transform="matrix(1,0,0,1,847.5,48) translate(134.025 14.6)"/></g><g><use xlink:href="#y" transform="matrix(1,0,0,1,851.5,85.6) translate(0 15.1)"/><use xlink:href="#G" transform="matrix(1,0,0,1,851.5,85.6) translate(46.95 15.1)"/></g><g><use xlink:href="#K" transform="matrix(1,0,0,1,851.5,123.99478150723581) translate(0 14.899999999999993)"/><use xlink:href="#w" transform="matrix(1,0,0,1,851.5,123.99478150723581) translate(46 14.899999999999993)"/><use xlink:href="#x" transform="matrix(1,0,0,1,851.5,123.99478150723581) translate(114.85000000000001 14.899999999999993)"/><use xlink:href="#V" transform="matrix(1,0,0,1,851.5,123.99478150723581) translate(0 36.49999999999999)"/><use xlink:href="#H" transform="matrix(1,0,0,1,851.5,123.99478150723581) translate(59.85 36.49999999999999)"/><use xlink:href="#x" transform="matrix(1,0,0,1,851.5,123.99478150723581) translate(133.70000000000002 36.49999999999999)"/><use xlink:href="#ad" transform="matrix(1,0,0,1,851.5,123.99478150723581) translate(0 58.099999999999994)"/><use xlink:href="#p" transform="matrix(1,0,0,1,851.5,123.99478150723581) translate(91.85000000000001 58.099999999999994)"/><use xlink:href="#ae" transform="matrix(1,0,0,1,851.5,123.99478150723581) translate(0 79.70000000000002)"/><use xlink:href="#t" transform="matrix(1,0,0,1,851.5,123.99478150723581) translate(0 101.30000000000001)"/></g><path d="M1159.5 475.62h4.96m4.96 0h9.9m4.97 0h9.9m4.97 0h9.9m4.97 0h4.96" stroke="#333" fill="none"/><path d="M1120.22 465.62l20 10-20 10" stroke="#333" fill="#fff" fill-opacity="0"/><path d="M1120.22 475.62h20M1160.22 475.62c0 5.52-4.47 10-10 10-5.52 0-10-4.48-10-10s4.48-10 10-10c5.53 0 10 4.48 10 10M1219 465.62v20M1239 475.62h-20" stroke="#333" fill="#fff"/><g><use xlink:href="#af" transform="matrix(1,0,0,1,1136.075,440.01983471074374) translate(0.005000000000002558 14.4)"/></g><path d="M979.5 281v78.5" stroke="#333" fill="none"/><path d="M989.5 241.72l-10 20-10-20" stroke="#333" fill="#fff" fill-opacity="0"/><path d="M979.5 241.72v20M989.5 271.72c0 5.53-4.48 10-10 10s-10-4.47-10-10c0-5.52 4.48-10 10-10s10 4.48 10 10M989.5 359.5h-20M979.5 379.5v-20" stroke="#333" fill="#fff"/><g><use xlink:href="#ag" transform="matrix(1,0,0,1,987.5,309.8605993288608) translate(0.005000000000002558 14.4)"/></g><path d="M340.5 110.5h4.96m4.96 0h9.9m4.97 0h9.9m4.55-.42V110h9.83m4.96 0h4.96" stroke="#333" fill="none"/><path d="M340.5 120.5v-20M320.5 110.5h20" stroke="#333" fill="#fff"/><path d="M438.78 120l-20-10 20-10" stroke="#333" fill="#fff" fill-opacity="0"/><path d="M438.78 110h-20M418.78 110c0 5.52-4.48 10-10 10-5.53 0-10-4.48-10-10s4.47-10 10-10c5.52 0 10 4.48 10 10" stroke="#333" fill="#fff"/><g><use xlink:href="#ah" transform="matrix(1,0,0,1,346.38567457034145,84.9) translate(0.004999999999999005 14.4)"/></g><path d="M579.5 279.5v-79" stroke="#333" fill="none"/><path d="M569.5 299.28l10-20 10 20" stroke="#333" fill="#fff" fill-opacity="0"/><path d="M579.5 299.28v-20M589.5 279.28h-20M569.5 200.5h20M579.5 180.5v20" stroke="#333" fill="#fff"/><g><use xlink:href="#ai" transform="matrix(1,0,0,1,509.59999999999997,223.03330855087066) translate(0.004999999999999005 14.4)"/></g><path d="M759.5 380h20V140.5H819" stroke="#333" fill="none"/><path d="M720.22 370l20 10-20 10" stroke="#333" fill="#fff" fill-opacity="0"/><path d="M720.22 380h20M760.22 380c0 5.52-4.47 10-10 10-5.52 0-10-4.48-10-10s4.48-10 10-10c5.53 0 10 4.48 10 10M819 130.5v20M839 140.5h-20" stroke="#333" fill="#fff"/><g><use xlink:href="#aj" transform="matrix(1,0,0,1,728.5,251.81049272885758) translate(0.004999999999999005 14.4)"/></g><path d="M1159.5 140.5h5m5 0h10v.03m4.45.56h10m5.02 0H1209m5 0h5" stroke="#333" fill="none"/><path d="M1120.22 130.5l20 10-20 10" stroke="#333" fill="#fff" fill-opacity="0"/><path d="M1120.22 140.5h20M1160.22 140.5c0 5.52-4.47 10-10 10-5.52 0-10-4.48-10-10s4.48-10 10-10c5.53 0 10 4.48 10 10M1219 131.1v20M1239 141.1h-20" stroke="#333" fill="#fff"/><g><use xlink:href="#ak" transform="matrix(1,0,0,1,1167.685917505218,115.48956301447166) translate(0.004999999999999005 14.4)"/></g><defs><path fill="#333" d="M212-179c-10-28-35-45-73-45-59 0-87 40-87 99 0 60 29 101 89 101 43 0 62-24 78-52l27 14C228-24 195 4 139 4 59 4 22-46 18-125c-6-104 99-153 187-111 19 9 31 26 39 46" id="al"/><path fill="#333" d="M84 4C-5 8 30-112 23-190h32v120c0 31 7 50 39 49 72-2 45-101 50-169h31l1 190h-30c-1-10 1-25-2-33-11 22-28 36-60 37" id="am"/><path fill="#333" d="M135-143c-3-34-86-38-87 0 15 53 115 12 119 90S17 21 10-45l28-5c4 36 97 45 98 0-10-56-113-15-118-90-4-57 82-63 122-42 12 7 21 19 24 35" id="an"/><path fill="#333" d="M59-47c-2 24 18 29 38 22v24C64 9 27 4 27-40v-127H5v-23h24l9-43h21v43h35v23H59v120" id="ao"/><path fill="#333" d="M100-194c62-1 85 37 85 99 1 63-27 99-86 99S16-35 15-95c0-66 28-99 85-99zM99-20c44 1 53-31 53-75 0-43-8-75-51-75s-53 32-53 75 10 74 51 75" id="ap"/><path fill="#333" d="M210-169c-67 3-38 105-44 169h-31v-121c0-29-5-50-35-48C34-165 62-65 56 0H25l-1-190h30c1 10-1 24 2 32 10-44 99-50 107 0 11-21 27-35 58-36 85-2 47 119 55 194h-31v-121c0-29-5-49-35-48" id="aq"/><path fill="#333" d="M100-194c63 0 86 42 84 106H49c0 40 14 67 53 68 26 1 43-12 49-29l28 8c-11 28-37 45-77 45C44 4 14-33 15-96c1-61 26-98 85-98zm52 81c6-60-76-77-97-28-3 7-6 17-6 28h103" id="ar"/><path fill="#333" d="M114-163C36-179 61-72 57 0H25l-1-190h30c1 12-1 29 2 39 6-27 23-49 58-41v29" id="as"/><g id="a"><use transform="matrix(0.05,0,0,0.05,0,0)" xlink:href="#al"/><use transform="matrix(0.05,0,0,0.05,12.950000000000001,0)" xlink:href="#am"/><use transform="matrix(0.05,0,0,0.05,22.950000000000003,0)" xlink:href="#an"/><use transform="matrix(0.05,0,0,0.05,31.950000000000003,0)" xlink:href="#ao"/><use transform="matrix(0.05,0,0,0.05,36.95,0)" xlink:href="#ap"/><use transform="matrix(0.05,0,0,0.05,46.95,0)" xlink:href="#aq"/><use transform="matrix(0.05,0,0,0.05,61.900000000000006,0)" xlink:href="#ar"/><use transform="matrix(0.05,0,0,0.05,71.9,0)" xlink:href="#as"/></g><g id="b"><use transform="matrix(0.05,0,0,0.05,0,0)" xlink:href="#al"/><use transform="matrix(0.05,0,0,0.05,12.950000000000001,0)" xlink:href="#am"/><use transform="matrix(0.05,0,0,0.05,22.950000000000003,0)" xlink:href="#an"/><use transform="matrix(0.05,0,0,0.05,31.950000000000003,0)" xlink:href="#ao"/><use transform="matrix(0.05,0,0,0.05,36.95,0)" xlink:href="#ap"/><use transform="matrix(0.05,0,0,0.05,46.95,0)" xlink:href="#aq"/><use transform="matrix(0.05,0,0,0.05,61.900000000000006,0)" xlink:href="#ar"/><use transform="matrix(0.05,0,0,0.05,71.9,0)" xlink:href="#as"/></g><path fill="#333" d="M33 0v-248h34V0H33" id="at"/><path fill="#333" d="M85-194c31 0 48 13 60 33l-1-100h32l1 261h-30c-2-10 0-23-3-31C134-8 116 4 85 4 32 4 16-35 15-94c0-66 23-100 70-100zm9 24c-40 0-46 34-46 75 0 40 6 74 45 74 42 0 51-32 51-76 0-42-9-74-50-73" id="au"/><path fill="#333" d="M117-194c89-4 53 116 60 194h-32v-121c0-31-8-49-39-48C34-167 62-67 57 0H25l-1-190h30c1 10-1 24 2 32 11-22 29-35 61-36" id="av"/><path fill="#333" d="M24-231v-30h32v30H24zM24 0v-190h32V0H24" id="aw"/><path fill="#333" d="M101-234c-31-9-42 10-38 44h38v23H63V0H32v-167H5v-23h27c-7-52 17-82 69-68v24" id="ax"/><g id="c"><use transform="matrix(0.05,0,0,0.05,0,0)" xlink:href="#at"/><use transform="matrix(0.05,0,0,0.05,5,0)" xlink:href="#au"/><use transform="matrix(0.05,0,0,0.05,15,0)" xlink:href="#ar"/><use transform="matrix(0.05,0,0,0.05,25,0)" xlink:href="#av"/><use transform="matrix(0.05,0,0,0.05,35,0)" xlink:href="#ao"/><use transform="matrix(0.05,0,0,0.05,40,0)" xlink:href="#aw"/><use transform="matrix(0.05,0,0,0.05,43.95,0)" xlink:href="#ax"/><use transform="matrix(0.05,0,0,0.05,48.95,0)" xlink:href="#aw"/><use transform="matrix(0.05,0,0,0.05,52.900000000000006,0)" xlink:href="#ar"/><use transform="matrix(0.05,0,0,0.05,62.900000000000006,0)" xlink:href="#as"/></g><path fill="#333" d="M63-220v92h138v28H63V0H30v-248h175v28H63" id="ay"/><g id="d"><use transform="matrix(0.05,0,0,0.05,0,0)" xlink:href="#ay"/><use transform="matrix(0.05,0,0,0.05,10.950000000000001,0)" xlink:href="#aw"/><use transform="matrix(0.05,0,0,0.05,14.9,0)" xlink:href="#as"/><use transform="matrix(0.05,0,0,0.05,20.85,0)" xlink:href="#an"/><use transform="matrix(0.05,0,0,0.05,29.85,0)" xlink:href="#ao"/></g><path fill="#333" d="M190 0L58-211 59 0H30v-248h39L202-35l-2-213h31V0h-41" id="az"/><path fill="#333" d="M141-36C126-15 110 5 73 4 37 3 15-17 15-53c-1-64 63-63 125-63 3-35-9-54-41-54-24 1-41 7-42 31l-33-3c5-37 33-52 76-52 45 0 72 20 72 64v82c-1 20 7 32 28 27v20c-31 9-61-2-59-35zM48-53c0 20 12 33 32 33 41-3 63-29 60-74-43 2-92-5-92 41" id="aA"/><g id="e"><use transform="matrix(0.05,0,0,0.05,0,0)" xlink:href="#az"/><use transform="matrix(0.05,0,0,0.05,12.950000000000001,0)" xlink:href="#aA"/><use transform="matrix(0.05,0,0,0.05,22.950000000000003,0)" xlink:href="#aq"/><use transform="matrix(0.05,0,0,0.05,37.900000000000006,0)" xlink:href="#ar"/></g><path fill="#333" d="M87 75C49 33 22-17 22-94c0-76 28-126 65-167h31c-38 41-64 92-64 168S80 34 118 75H87" id="aB"/><path fill="#333" d="M205 0l-28-72H64L36 0H1l101-248h38L239 0h-34zm-38-99l-47-123c-12 45-31 82-46 123h93" id="aC"/><path fill="#333" d="M194 0L95-120 63-95V0H30v-248h33v124l119-124h40L117-140 236 0h-42" id="aD"/><path fill="#333" d="M27 0v-27h64v-190l-56 39v-29l58-41h29v221h61V0H27" id="aE"/><path fill="#333" d="M33-154v-36h34v36H33zM33 0v-36h34V0H33" id="aF"/><path fill="#333" d="M33-261c38 41 65 92 65 168S71 34 33 75H2C39 34 66-17 66-93S39-220 2-261h31" id="aG"/><g id="f"><use transform="matrix(0.05,0,0,0.05,0,0)" xlink:href="#aB"/><use transform="matrix(0.05,0,0,0.05,5.95,0)" xlink:href="#aC"/><use transform="matrix(0.05,0,0,0.05,17.95,0)" xlink:href="#aD"/><use transform="matrix(0.05,0,0,0.05,29.950000000000003,0)" xlink:href="#aE"/><use transform="matrix(0.05,0,0,0.05,39.95,0)" xlink:href="#aF"/><use transform="matrix(0.05,0,0,0.05,44.95,0)" xlink:href="#aE"/><use transform="matrix(0.05,0,0,0.05,54.95,0)" xlink:href="#aG"/></g><path fill="#333" d="M30 0v-248h33v221h125V0H30" id="aH"/><g id="g"><use transform="matrix(0.05,0,0,0.05,0,0)" xlink:href="#aH"/><use transform="matrix(0.05,0,0,0.05,10,0)" xlink:href="#aA"/><use transform="matrix(0.05,0,0,0.05,20,0)" xlink:href="#an"/><use transform="matrix(0.05,0,0,0.05,29,0)" xlink:href="#ao"/></g><path fill="#333" d="M101-251c82-7 93 87 43 132L82-64C71-53 59-42 53-27h129V0H18c2-99 128-94 128-182 0-28-16-43-45-43s-46 15-49 41l-32-3c6-41 34-60 81-64" id="aI"/><g id="h"><use transform="matrix(0.05,0,0,0.05,0,0)" xlink:href="#aB"/><use transform="matrix(0.05,0,0,0.05,5.95,0)" xlink:href="#aC"/><use transform="matrix(0.05,0,0,0.05,17.95,0)" xlink:href="#aD"/><use transform="matrix(0.05,0,0,0.05,29.950000000000003,0)" xlink:href="#aE"/><use transform="matrix(0.05,0,0,0.05,39.95,0)" xlink:href="#aF"/><use transform="matrix(0.05,0,0,0.05,44.95,0)" xlink:href="#aI"/><use transform="matrix(0.05,0,0,0.05,54.95,0)" xlink:href="#aG"/></g><path fill="#333" d="M30 0v-248h187v28H63v79h144v27H63v87h162V0H30" id="aJ"/><path fill="#333" d="M24 0v-261h32V0H24" id="aK"/><g id="i"><use transform="matrix(0.05,0,0,0.05,0,0)" xlink:href="#aJ"/><use transform="matrix(0.05,0,0,0.05,12,0)" xlink:href="#aq"/><use transform="matrix(0.05,0,0,0.05,26.950000000000003,0)" xlink:href="#aA"/><use transform="matrix(0.05,0,0,0.05,36.95,0)" xlink:href="#aw"/><use transform="matrix(0.05,0,0,0.05,40.900000000000006,0)" xlink:href="#aK"/></g><g id="j"><use transform="matrix(0.05,0,0,0.05,0,0)" xlink:href="#aB"/><use transform="matrix(0.05,0,0,0.05,5.95,0)" xlink:href="#aC"/><use transform="matrix(0.05,0,0,0.05,17.95,0)" xlink:href="#aD"/><use transform="matrix(0.05,0,0,0.05,29.950000000000003,0)" xlink:href="#aI"/><use transform="matrix(0.05,0,0,0.05,39.95,0)" xlink:href="#aF"/><use transform="matrix(0.05,0,0,0.05,44.95,0)" xlink:href="#aE"/><use transform="matrix(0.05,0,0,0.05,54.95,0)" xlink:href="#aG"/></g><path fill="#333" d="M30-248c87 1 191-15 191 75 0 78-77 80-158 76V0H30v-248zm33 125c57 0 124 11 124-50 0-59-68-47-124-48v98" id="aL"/><path fill="#333" d="M106-169C34-169 62-67 57 0H25v-261h32l-1 103c12-21 28-36 61-36 89 0 53 116 60 194h-32v-121c2-32-8-49-39-48" id="aM"/><g id="k"><use transform="matrix(0.05,0,0,0.05,0,0)" xlink:href="#aL"/><use transform="matrix(0.05,0,0,0.05,12,0)" xlink:href="#aM"/><use transform="matrix(0.05,0,0,0.05,22,0)" xlink:href="#ap"/><use transform="matrix(0.05,0,0,0.05,32,0)" xlink:href="#av"/><use transform="matrix(0.05,0,0,0.05,42,0)" xlink:href="#ar"/></g><path fill="#333" d="M30-248c118-7 216 8 213 122C240-48 200 0 122 0H30v-248zM63-27c89 8 146-16 146-99s-60-101-146-95v194" id="aN"/><g id="l"><use transform="matrix(0.05,0,0,0.05,0,0)" xlink:href="#aN"/><use transform="matrix(0.05,0,0,0.05,12.950000000000001,0)" xlink:href="#aA"/><use transform="matrix(0.05,0,0,0.05,22.950000000000003,0)" xlink:href="#ao"/><use transform="matrix(0.05,0,0,0.05,27.950000000000003,0)" xlink:href="#ar"/></g><g id="m"><use transform="matrix(0.05,0,0,0.05,0,0)" xlink:href="#ap"/><use transform="matrix(0.05,0,0,0.05,10,0)" xlink:href="#ax"/></g><path fill="#333" d="M160-131c35 5 61 23 61 61C221 17 115-2 30 0v-248c76 3 177-17 177 60 0 33-19 50-47 57zm-97-11c50-1 110 9 110-42 0-47-63-36-110-37v79zm0 115c55-2 124 14 124-45 0-56-70-42-124-44v89" id="aO"/><g id="n"><use transform="matrix(0.05,0,0,0.05,0,0)" xlink:href="#aO"/><use transform="matrix(0.05,0,0,0.05,12,0)" xlink:href="#aw"/><use transform="matrix(0.05,0,0,0.05,15.949999999999998,0)" xlink:href="#as"/><use transform="matrix(0.05,0,0,0.05,21.9,0)" xlink:href="#ao"/><use transform="matrix(0.05,0,0,0.05,26.899999999999995,0)" xlink:href="#aM"/></g><path fill="#333" d="M185-189c-5-48-123-54-124 2 14 75 158 14 163 119 3 78-121 87-175 55-17-10-28-26-33-46l33-7c5 56 141 63 141-1 0-78-155-14-162-118-5-82 145-84 179-34 5 7 8 16 11 25" id="aP"/><path fill="#333" d="M177-190C167-65 218 103 67 71c-23-6-38-20-44-43l32-5c15 47 100 32 89-28v-30C133-14 115 1 83 1 29 1 15-40 15-95c0-56 16-97 71-98 29-1 48 16 59 35 1-10 0-23 2-32h30zM94-22c36 0 50-32 50-73 0-42-14-75-50-75-39 0-46 34-46 75s6 73 46 73" id="aQ"/><path fill="#333" d="M115-194c55 1 70 41 70 98S169 2 115 4C84 4 66-9 55-30l1 105H24l-1-265h31l2 30c10-21 28-34 59-34zm-8 174c40 0 45-34 45-75s-6-73-45-74c-42 0-51 32-51 76 0 43 10 73 51 73" id="aR"/><g id="o"><use transform="matrix(0.05,0,0,0.05,0,0)" xlink:href="#aP"/><use transform="matrix(0.05,0,0,0.05,12,0)" xlink:href="#aw"/><use transform="matrix(0.05,0,0,0.05,15.949999999999998,0)" xlink:href="#aQ"/><use transform="matrix(0.05,0,0,0.05,25.950000000000003,0)" xlink:href="#av"/><use transform="matrix(0.05,0,0,0.05,35.95,0)" xlink:href="#am"/><use transform="matrix(0.05,0,0,0.05,45.95,0)" xlink:href="#aR"/></g><g id="p"><use transform="matrix(0.05,0,0,0.05,0,0)" xlink:href="#aN"/><use transform="matrix(0.05,0,0,0.05,12.950000000000001,0)" xlink:href="#aA"/><use transform="matrix(0.05,0,0,0.05,22.950000000000003,0)" xlink:href="#ao"/><use transform="matrix(0.05,0,0,0.05,27.950000000000003,0)" xlink:href="#ar"/></g><path fill="#333" d="M68-38c1 34 0 65-14 84H32c9-13 17-26 17-46H33v-38h35" id="aS"/><g id="q"><use transform="matrix(0.05,0,0,0.05,0,0)" xlink:href="#aC"/><use transform="matrix(0.05,0,0,0.05,12,0)" xlink:href="#au"/><use transform="matrix(0.05,0,0,0.05,22,0)" xlink:href="#as"/><use transform="matrix(0.05,0,0,0.05,27.950000000000003,0)" xlink:href="#ar"/><use transform="matrix(0.05,0,0,0.05,37.95,0)" xlink:href="#an"/><use transform="matrix(0.05,0,0,0.05,46.95,0)" xlink:href="#an"/><use transform="matrix(0.05,0,0,0.05,55.95,0)" xlink:href="#aS"/></g><path fill="#333" d="M209 0H11v-25l151-195H24v-28h176v25L50-27h159V0" id="aT"/><g id="r"><use transform="matrix(0.05,0,0,0.05,0,0)" xlink:href="#aT"/><use transform="matrix(0.05,0,0,0.05,10.950000000000001,0)" xlink:href="#at"/><use transform="matrix(0.05,0,0,0.05,15.950000000000001,0)" xlink:href="#aL"/></g><path fill="#333" d="M96-169c-40 0-48 33-48 73s9 75 48 75c24 0 41-14 43-38l32 2c-6 37-31 61-74 61-59 0-76-41-82-99-10-93 101-131 147-64 4 7 5 14 7 22l-32 3c-4-21-16-35-41-35" id="aU"/><path fill="#333" d="M33 0v-38h34V0H33" id="aV"/><g id="s"><use transform="matrix(0.05,0,0,0.05,0,0)" xlink:href="#ar"/><use transform="matrix(0.05,0,0,0.05,10,0)" xlink:href="#ao"/><use transform="matrix(0.05,0,0,0.05,15,0)" xlink:href="#aU"/><use transform="matrix(0.05,0,0,0.05,24,0)" xlink:href="#aV"/></g><g id="t"><use transform="matrix(0.05,0,0,0.05,0,0)" xlink:href="#aV"/><use transform="matrix(0.05,0,0,0.05,5,0)" xlink:href="#aV"/><use transform="matrix(0.05,0,0,0.05,10,0)" xlink:href="#aV"/></g><path fill="#333" d="M233-177c-1 41-23 64-60 70L243 0h-38l-65-103H63V0H30v-248c88 3 205-21 203 71zM63-129c60-2 137 13 137-47 0-61-80-42-137-45v92" id="aW"/><g id="u"><use transform="matrix(0.05,0,0,0.05,0,0)" xlink:href="#aW"/><use transform="matrix(0.05,0,0,0.05,12.950000000000001,0)" xlink:href="#ar"/><use transform="matrix(0.05,0,0,0.05,22.950000000000003,0)" xlink:href="#av"/><use transform="matrix(0.05,0,0,0.05,32.95,0)" xlink:href="#ao"/></g><g id="v"><use transform="matrix(0.05,0,0,0.05,0,0)" xlink:href="#at"/><use transform="matrix(0.05,0,0,0.05,5,0)" xlink:href="#ao"/><use transform="matrix(0.05,0,0,0.05,10,0)" xlink:href="#ar"/><use transform="matrix(0.05,0,0,0.05,20,0)" xlink:href="#aq"/></g><path fill="#333" d="M115-194c53 0 69 39 70 98 0 66-23 100-70 100C84 3 66-7 56-30L54 0H23l1-261h32v101c10-23 28-34 59-34zm-8 174c40 0 45-34 45-75 0-40-5-75-45-74-42 0-51 32-51 76 0 43 10 73 51 73" id="aX"/><g id="w"><use transform="matrix(0.05,0,0,0.05,0,0)" xlink:href="#az"/><use transform="matrix(0.05,0,0,0.05,12.950000000000001,0)" xlink:href="#am"/><use transform="matrix(0.05,0,0,0.05,22.950000000000003,0)" xlink:href="#aq"/><use transform="matrix(0.05,0,0,0.05,37.900000000000006,0)" xlink:href="#aX"/><use transform="matrix(0.05,0,0,0.05,47.900000000000006,0)" xlink:href="#ar"/><use transform="matrix(0.05,0,0,0.05,57.900000000000006,0)" xlink:href="#as"/></g><g id="x"><use transform="matrix(0.05,0,0,0.05,0,0)" xlink:href="#aB"/><use transform="matrix(0.05,0,0,0.05,5.95,0)" xlink:href="#ay"/><use transform="matrix(0.05,0,0,0.05,16.900000000000002,0)" xlink:href="#aD"/><use transform="matrix(0.05,0,0,0.05,28.900000000000002,0)" xlink:href="#aG"/></g><path fill="#333" d="M179-190L93 31C79 59 56 82 12 73V49c39 6 53-20 64-50L1-190h34L92-34l54-156h33" id="aY"/><g id="y"><use transform="matrix(0.05,0,0,0.05,0,0)" xlink:href="#al"/><use transform="matrix(0.05,0,0,0.05,12.950000000000001,0)" xlink:href="#ap"/><use transform="matrix(0.05,0,0,0.05,22.950000000000003,0)" xlink:href="#aR"/><use transform="matrix(0.05,0,0,0.05,32.95,0)" xlink:href="#aY"/></g><g id="z"><use transform="matrix(0.05,0,0,0.05,0,0)" xlink:href="#aB"/><use transform="matrix(0.05,0,0,0.05,5.95,0)" xlink:href="#ay"/><use transform="matrix(0.05,0,0,0.05,16.900000000000002,0)" xlink:href="#aD"/><use transform="matrix(0.05,0,0,0.05,28.900000000000002,0)" xlink:href="#aG"/></g><path fill="#333" d="M240 0l2-218c-23 76-54 145-80 218h-23L58-218 59 0H30v-248h44l77 211c21-75 51-140 76-211h43V0h-30" id="aZ"/><path fill="#333" d="M141 0L90-78 38 0H4l68-98-65-92h35l48 74 47-74h35l-64 92 68 98h-35" id="ba"/><g id="A"><use transform="matrix(0.05,0,0,0.05,0,0)" xlink:href="#aZ"/><use transform="matrix(0.05,0,0,0.05,14.950000000000001,0)" xlink:href="#aA"/><use transform="matrix(0.05,0,0,0.05,24.950000000000003,0)" xlink:href="#ba"/></g><g id="B"><use transform="matrix(0.05,0,0,0.05,0,0)" xlink:href="#aW"/><use transform="matrix(0.05,0,0,0.05,12.950000000000001,0)" xlink:href="#ar"/><use transform="matrix(0.05,0,0,0.05,22.950000000000003,0)" xlink:href="#av"/><use transform="matrix(0.05,0,0,0.05,32.95,0)" xlink:href="#ao"/></g><g id="C"><use transform="matrix(0.05,0,0,0.05,0,0)" xlink:href="#aN"/><use transform="matrix(0.05,0,0,0.05,12.950000000000001,0)" xlink:href="#am"/><use transform="matrix(0.05,0,0,0.05,22.950000000000003,0)" xlink:href="#as"/><use transform="matrix(0.05,0,0,0.05,28.900000000000002,0)" xlink:href="#aA"/><use transform="matrix(0.05,0,0,0.05,38.900000000000006,0)" xlink:href="#ao"/><use transform="matrix(0.05,0,0,0.05,43.900000000000006,0)" xlink:href="#aw"/><use transform="matrix(0.05,0,0,0.05,47.85000000000001,0)" xlink:href="#ap"/><use transform="matrix(0.05,0,0,0.05,57.85,0)" xlink:href="#av"/></g><g id="D"><use transform="matrix(0.05,0,0,0.05,0,0)" xlink:href="#aW"/><use transform="matrix(0.05,0,0,0.05,12.950000000000001,0)" xlink:href="#ar"/><use transform="matrix(0.05,0,0,0.05,22.950000000000003,0)" xlink:href="#ao"/><use transform="matrix(0.05,0,0,0.05,27.950000000000003,0)" xlink:href="#am"/><use transform="matrix(0.05,0,0,0.05,37.95,0)" xlink:href="#as"/><use transform="matrix(0.05,0,0,0.05,43.900000000000006,0)" xlink:href="#av"/></g><g id="E"><use transform="matrix(0.05,0,0,0.05,0,0)" xlink:href="#aN"/><use transform="matrix(0.05,0,0,0.05,12.950000000000001,0)" xlink:href="#aA"/><use transform="matrix(0.05,0,0,0.05,22.950000000000003,0)" xlink:href="#ao"/><use transform="matrix(0.05,0,0,0.05,27.950000000000003,0)" xlink:href="#ar"/></g><g id="F"><use transform="matrix(0.05,0,0,0.05,0,0)" xlink:href="#aW"/><use transform="matrix(0.05,0,0,0.05,12.950000000000001,0)" xlink:href="#ar"/><use transform="matrix(0.05,0,0,0.05,22.950000000000003,0)" xlink:href="#av"/><use transform="matrix(0.05,0,0,0.05,32.95,0)" xlink:href="#ao"/></g><g id="G"><use transform="matrix(0.05,0,0,0.05,0,0)" xlink:href="#az"/><use transform="matrix(0.05,0,0,0.05,12.950000000000001,0)" xlink:href="#am"/><use transform="matrix(0.05,0,0,0.05,22.950000000000003,0)" xlink:href="#aq"/><use transform="matrix(0.05,0,0,0.05,37.900000000000006,0)" xlink:href="#aX"/><use transform="matrix(0.05,0,0,0.05,47.900000000000006,0)" xlink:href="#ar"/><use transform="matrix(0.05,0,0,0.05,57.900000000000006,0)" xlink:href="#as"/></g><g id="H"><use transform="matrix(0.05,0,0,0.05,0,0)" xlink:href="#at"/><use transform="matrix(0.05,0,0,0.05,5,0)" xlink:href="#au"/><use transform="matrix(0.05,0,0,0.05,15,0)" xlink:href="#ar"/><use transform="matrix(0.05,0,0,0.05,25,0)" xlink:href="#av"/><use transform="matrix(0.05,0,0,0.05,35,0)" xlink:href="#ao"/><use transform="matrix(0.05,0,0,0.05,40,0)" xlink:href="#aw"/><use transform="matrix(0.05,0,0,0.05,43.95,0)" xlink:href="#ax"/><use transform="matrix(0.05,0,0,0.05,48.95,0)" xlink:href="#aw"/><use transform="matrix(0.05,0,0,0.05,52.900000000000006,0)" xlink:href="#ar"/><use transform="matrix(0.05,0,0,0.05,62.900000000000006,0)" xlink:href="#as"/></g><g id="I"><use transform="matrix(0.05,0,0,0.05,0,0)" xlink:href="#at"/><use transform="matrix(0.05,0,0,0.05,5,0)" xlink:href="#an"/><use transform="matrix(0.05,0,0,0.05,14,0)" xlink:href="#an"/><use transform="matrix(0.05,0,0,0.05,23,0)" xlink:href="#am"/><use transform="matrix(0.05,0,0,0.05,33,0)" xlink:href="#ar"/></g><path fill="#333" d="M143 0L79-87 56-68V0H24v-261h32v163l83-92h37l-77 82L181 0h-38" id="bb"/><g id="J"><use transform="matrix(0.05,0,0,0.05,0,0)" xlink:href="#aO"/><use transform="matrix(0.05,0,0,0.05,12,0)" xlink:href="#ap"/><use transform="matrix(0.05,0,0,0.05,22,0)" xlink:href="#ap"/><use transform="matrix(0.05,0,0,0.05,32,0)" xlink:href="#bb"/></g><g id="K"><use transform="matrix(0.05,0,0,0.05,0,0)" xlink:href="#aO"/><use transform="matrix(0.05,0,0,0.05,12,0)" xlink:href="#ap"/><use transform="matrix(0.05,0,0,0.05,22,0)" xlink:href="#ap"/><use transform="matrix(0.05,0,0,0.05,32,0)" xlink:href="#bb"/></g><g id="L"><use transform="matrix(0.05,0,0,0.05,0,0)" xlink:href="#az"/><use transform="matrix(0.05,0,0,0.05,12.950000000000001,0)" xlink:href="#am"/><use transform="matrix(0.05,0,0,0.05,22.950000000000003,0)" xlink:href="#aq"/><use transform="matrix(0.05,0,0,0.05,37.900000000000006,0)" xlink:href="#aX"/><use transform="matrix(0.05,0,0,0.05,47.900000000000006,0)" xlink:href="#ar"/><use transform="matrix(0.05,0,0,0.05,57.900000000000006,0)" xlink:href="#as"/></g><g id="M"><use transform="matrix(0.05,0,0,0.05,0,0)" xlink:href="#at"/><use transform="matrix(0.05,0,0,0.05,5,0)" xlink:href="#aP"/><use transform="matrix(0.05,0,0,0.05,17,0)" xlink:href="#aO"/><use transform="matrix(0.05,0,0,0.05,29,0)" xlink:href="#az"/></g><path fill="#333" d="M127-220V0H93v-220H8v-28h204v28h-85" id="bc"/><g id="N"><use transform="matrix(0.05,0,0,0.05,0,0)" xlink:href="#bc"/><use transform="matrix(0.05,0,0,0.05,10.3,0)" xlink:href="#aw"/><use transform="matrix(0.05,0,0,0.05,14.25,0)" xlink:href="#ao"/><use transform="matrix(0.05,0,0,0.05,19.25,0)" xlink:href="#aK"/><use transform="matrix(0.05,0,0,0.05,23.2,0)" xlink:href="#ar"/></g><g id="O"><use transform="matrix(0.05,0,0,0.05,0,0)" xlink:href="#aJ"/><use transform="matrix(0.05,0,0,0.05,12,0)" xlink:href="#au"/><use transform="matrix(0.05,0,0,0.05,22,0)" xlink:href="#aw"/><use transform="matrix(0.05,0,0,0.05,25.950000000000003,0)" xlink:href="#ao"/><use transform="matrix(0.05,0,0,0.05,30.950000000000003,0)" xlink:href="#aw"/><use transform="matrix(0.05,0,0,0.05,34.9,0)" xlink:href="#ap"/><use transform="matrix(0.05,0,0,0.05,44.9,0)" xlink:href="#av"/></g><g id="P"><use transform="matrix(0.05,0,0,0.05,0,0)" xlink:href="#aB"/><use transform="matrix(0.05,0,0,0.05,5.95,0)" xlink:href="#aC"/><use transform="matrix(0.05,0,0,0.05,17.95,0)" xlink:href="#aD"/><use transform="matrix(0.05,0,0,0.05,29.950000000000003,0)" xlink:href="#aI"/><use transform="matrix(0.05,0,0,0.05,39.95,0)" xlink:href="#aF"/><use transform="matrix(0.05,0,0,0.05,44.95,0)" xlink:href="#aI"/><use transform="matrix(0.05,0,0,0.05,54.95,0)" xlink:href="#aG"/></g><g id="Q"><use transform="matrix(0.05,0,0,0.05,0,0)" xlink:href="#aC"/><use transform="matrix(0.05,0,0,0.05,12,0)" xlink:href="#am"/><use transform="matrix(0.05,0,0,0.05,22,0)" xlink:href="#ao"/><use transform="matrix(0.05,0,0,0.05,27,0)" xlink:href="#aM"/><use transform="matrix(0.05,0,0,0.05,37,0)" xlink:href="#ap"/><use transform="matrix(0.05,0,0,0.05,47,0)" xlink:href="#as"/></g><g id="R"><use transform="matrix(0.05,0,0,0.05,0,0)" xlink:href="#aL"/><use transform="matrix(0.05,0,0,0.05,12,0)" xlink:href="#am"/><use transform="matrix(0.05,0,0,0.05,22,0)" xlink:href="#aX"/><use transform="matrix(0.05,0,0,0.05,32,0)" xlink:href="#aK"/><use transform="matrix(0.05,0,0,0.05,35.95,0)" xlink:href="#aw"/><use transform="matrix(0.05,0,0,0.05,39.900000000000006,0)" xlink:href="#an"/><use transform="matrix(0.05,0,0,0.05,48.900000000000006,0)" xlink:href="#aM"/><use transform="matrix(0.05,0,0,0.05,58.900000000000006,0)" xlink:href="#ar"/><use transform="matrix(0.05,0,0,0.05,68.9,0)" xlink:href="#as"/></g><path fill="#333" d="M143 4C61 4 22-44 18-125c-5-107 100-154 193-111 17 8 29 25 37 43l-32 9c-13-25-37-40-76-40-61 0-88 39-88 99 0 61 29 100 91 101 35 0 62-11 79-27v-45h-74v-28h105v86C228-13 192 4 143 4" id="bd"/><g id="S"><use transform="matrix(0.05,0,0,0.05,0,0)" xlink:href="#bd"/><use transform="matrix(0.05,0,0,0.05,14,0)" xlink:href="#ar"/><use transform="matrix(0.05,0,0,0.05,24,0)" xlink:href="#av"/><use transform="matrix(0.05,0,0,0.05,34,0)" xlink:href="#as"/><use transform="matrix(0.05,0,0,0.05,39.95,0)" xlink:href="#ar"/></g><g id="T"><use transform="matrix(0.05,0,0,0.05,0,0)" xlink:href="#al"/><use transform="matrix(0.05,0,0,0.05,12.950000000000001,0)" xlink:href="#ap"/><use transform="matrix(0.05,0,0,0.05,22.950000000000003,0)" xlink:href="#au"/><use transform="matrix(0.05,0,0,0.05,32.95,0)" xlink:href="#ar"/></g><g id="U"><use transform="matrix(0.05,0,0,0.05,0,0)" xlink:href="#aH"/><use transform="matrix(0.05,0,0,0.05,10,0)" xlink:href="#aw"/><use transform="matrix(0.05,0,0,0.05,13.949999999999998,0)" xlink:href="#aX"/><use transform="matrix(0.05,0,0,0.05,23.95,0)" xlink:href="#as"/><use transform="matrix(0.05,0,0,0.05,29.899999999999995,0)" xlink:href="#aA"/><use transform="matrix(0.05,0,0,0.05,39.9,0)" xlink:href="#as"/><use transform="matrix(0.05,0,0,0.05,45.85,0)" xlink:href="#aY"/></g><g id="V"><use transform="matrix(0.05,0,0,0.05,0,0)" xlink:href="#aH"/><use transform="matrix(0.05,0,0,0.05,10,0)" xlink:href="#aw"/><use transform="matrix(0.05,0,0,0.05,13.949999999999998,0)" xlink:href="#aX"/><use transform="matrix(0.05,0,0,0.05,23.95,0)" xlink:href="#as"/><use transform="matrix(0.05,0,0,0.05,29.899999999999995,0)" xlink:href="#aA"/><use transform="matrix(0.05,0,0,0.05,39.9,0)" xlink:href="#as"/><use transform="matrix(0.05,0,0,0.05,45.85,0)" xlink:href="#aY"/></g><g id="W"><use transform="matrix(0.05,0,0,0.05,0,0)" xlink:href="#aC"/><use transform="matrix(0.05,0,0,0.05,12,0)" xlink:href="#au"/><use transform="matrix(0.05,0,0,0.05,22,0)" xlink:href="#as"/><use transform="matrix(0.05,0,0,0.05,27.950000000000003,0)" xlink:href="#ar"/><use transform="matrix(0.05,0,0,0.05,37.95,0)" xlink:href="#an"/><use transform="matrix(0.05,0,0,0.05,46.95,0)" xlink:href="#an"/></g><g id="X"><use transform="matrix(0.05,0,0,0.05,0,0)" xlink:href="#bd"/><use transform="matrix(0.05,0,0,0.05,14,0)" xlink:href="#ar"/><use transform="matrix(0.05,0,0,0.05,24,0)" xlink:href="#av"/><use transform="matrix(0.05,0,0,0.05,34,0)" xlink:href="#as"/><use transform="matrix(0.05,0,0,0.05,39.95,0)" xlink:href="#ar"/></g><g id="Y"><use transform="matrix(0.05,0,0,0.05,0,0)" xlink:href="#al"/><use transform="matrix(0.05,0,0,0.05,12.950000000000001,0)" xlink:href="#ap"/><use transform="matrix(0.05,0,0,0.05,22.950000000000003,0)" xlink:href="#au"/><use transform="matrix(0.05,0,0,0.05,32.95,0)" xlink:href="#ar"/></g><g id="Z"><use transform="matrix(0.05,0,0,0.05,0,0)" xlink:href="#aN"/><use transform="matrix(0.05,0,0,0.05,12.950000000000001,0)" xlink:href="#ar"/><use transform="matrix(0.05,0,0,0.05,22.950000000000003,0)" xlink:href="#an"/><use transform="matrix(0.05,0,0,0.05,31.950000000000003,0)" xlink:href="#aU"/><use transform="matrix(0.05,0,0,0.05,40.95,0)" xlink:href="#as"/><use transform="matrix(0.05,0,0,0.05,46.900000000000006,0)" xlink:href="#aw"/><use transform="matrix(0.05,0,0,0.05,50.85000000000001,0)" xlink:href="#aR"/><use transform="matrix(0.05,0,0,0.05,60.85,0)" xlink:href="#ao"/><use transform="matrix(0.05,0,0,0.05,65.85000000000001,0)" xlink:href="#aw"/><use transform="matrix(0.05,0,0,0.05,69.80000000000001,0)" xlink:href="#ap"/><use transform="matrix(0.05,0,0,0.05,79.80000000000001,0)" xlink:href="#av"/></g><g id="aa"><use transform="matrix(0.05,0,0,0.05,0,0)" xlink:href="#aZ"/><use transform="matrix(0.05,0,0,0.05,14.950000000000001,0)" xlink:href="#aw"/><use transform="matrix(0.05,0,0,0.05,18.900000000000002,0)" xlink:href="#av"/><use transform="matrix(0.05,0,0,0.05,28.900000000000002,0)" xlink:href="#aw"/><use transform="matrix(0.05,0,0,0.05,32.85,0)" xlink:href="#aq"/><use transform="matrix(0.05,0,0,0.05,47.800000000000004,0)" xlink:href="#am"/><use transform="matrix(0.05,0,0,0.05,57.800000000000004,0)" xlink:href="#aq"/></g><g id="ab"><use transform="matrix(0.05,0,0,0.05,0,0)" xlink:href="#aC"/><use transform="matrix(0.05,0,0,0.05,12,0)" xlink:href="#aQ"/><use transform="matrix(0.05,0,0,0.05,22,0)" xlink:href="#ar"/></g><g id="ac"><use transform="matrix(0.05,0,0,0.05,0,0)" xlink:href="#al"/><use transform="matrix(0.05,0,0,0.05,12.950000000000001,0)" xlink:href="#ap"/><use transform="matrix(0.05,0,0,0.05,22.950000000000003,0)" xlink:href="#aR"/><use transform="matrix(0.05,0,0,0.05,32.95,0)" xlink:href="#aY"/></g><path fill="#333" d="M145-31C134-9 116 4 85 4 32 4 16-35 15-94c0-59 17-99 70-100 32-1 48 14 60 33 0-11-1-24 2-32h30l-1 268h-32zM93-21c41 0 51-33 51-76s-8-73-50-73c-40 0-46 35-46 75s5 74 45 74" id="be"/><g id="ad"><use transform="matrix(0.05,0,0,0.05,0,0)" xlink:href="#aC"/><use transform="matrix(0.05,0,0,0.05,12,0)" xlink:href="#aU"/><use transform="matrix(0.05,0,0,0.05,21,0)" xlink:href="#be"/><use transform="matrix(0.05,0,0,0.05,31,0)" xlink:href="#am"/><use transform="matrix(0.05,0,0,0.05,41,0)" xlink:href="#aw"/><use transform="matrix(0.05,0,0,0.05,44.95,0)" xlink:href="#an"/><use transform="matrix(0.05,0,0,0.05,53.95,0)" xlink:href="#aw"/><use transform="matrix(0.05,0,0,0.05,57.900000000000006,0)" xlink:href="#ao"/><use transform="matrix(0.05,0,0,0.05,62.900000000000006,0)" xlink:href="#aw"/><use transform="matrix(0.05,0,0,0.05,66.85000000000001,0)" xlink:href="#ap"/><use transform="matrix(0.05,0,0,0.05,76.85000000000001,0)" xlink:href="#av"/></g><g id="ae"><use transform="matrix(0.05,0,0,0.05,0,0)" xlink:href="#al"/><use transform="matrix(0.05,0,0,0.05,12.950000000000001,0)" xlink:href="#ap"/><use transform="matrix(0.05,0,0,0.05,22.950000000000003,0)" xlink:href="#av"/><use transform="matrix(0.05,0,0,0.05,32.95,0)" xlink:href="#au"/><use transform="matrix(0.05,0,0,0.05,42.95,0)" xlink:href="#aw"/><use transform="matrix(0.05,0,0,0.05,46.900000000000006,0)" xlink:href="#ao"/><use transform="matrix(0.05,0,0,0.05,51.900000000000006,0)" xlink:href="#aw"/><use transform="matrix(0.05,0,0,0.05,55.85,0)" xlink:href="#ap"/><use transform="matrix(0.05,0,0,0.05,65.85000000000001,0)" xlink:href="#av"/></g><path fill="#333" d="M9 0v-24l116-142H16v-24h144v24L44-24h123V0H9" id="bf"/><g id="af"><use transform="matrix(0.05,0,0,0.05,0,0)" xlink:href="#al"/><use transform="matrix(0.05,0,0,0.05,12.950000000000001,0)" xlink:href="#aA"/><use transform="matrix(0.05,0,0,0.05,22.950000000000003,0)" xlink:href="#ao"/><use transform="matrix(0.05,0,0,0.05,27.950000000000003,0)" xlink:href="#ar"/><use transform="matrix(0.05,0,0,0.05,37.95,0)" xlink:href="#aQ"/><use transform="matrix(0.05,0,0,0.05,47.95,0)" xlink:href="#ap"/><use transform="matrix(0.05,0,0,0.05,57.95,0)" xlink:href="#as"/><use transform="matrix(0.05,0,0,0.05,63.900000000000006,0)" xlink:href="#aw"/><use transform="matrix(0.05,0,0,0.05,67.85000000000001,0)" xlink:href="#bf"/><use transform="matrix(0.05,0,0,0.05,76.85000000000001,0)" xlink:href="#ar"/></g><g id="ag"><use transform="matrix(0.05,0,0,0.05,0,0)" xlink:href="#aW"/><use transform="matrix(0.05,0,0,0.05,12.950000000000001,0)" xlink:href="#ar"/><use transform="matrix(0.05,0,0,0.05,22.950000000000003,0)" xlink:href="#aR"/><use transform="matrix(0.05,0,0,0.05,32.95,0)" xlink:href="#as"/><use transform="matrix(0.05,0,0,0.05,38.900000000000006,0)" xlink:href="#ar"/><use transform="matrix(0.05,0,0,0.05,48.900000000000006,0)" xlink:href="#an"/><use transform="matrix(0.05,0,0,0.05,57.900000000000006,0)" xlink:href="#ar"/><use transform="matrix(0.05,0,0,0.05,67.9,0)" xlink:href="#av"/><use transform="matrix(0.05,0,0,0.05,77.9,0)" xlink:href="#ao"/></g><g id="ah"><use transform="matrix(0.05,0,0,0.05,0,0)" xlink:href="#at"/><use transform="matrix(0.05,0,0,0.05,5,0)" xlink:href="#av"/><use transform="matrix(0.05,0,0,0.05,15,0)" xlink:href="#aw"/><use transform="matrix(0.05,0,0,0.05,18.95,0)" xlink:href="#ao"/><use transform="matrix(0.05,0,0,0.05,23.95,0)" xlink:href="#aw"/><use transform="matrix(0.05,0,0,0.05,27.899999999999995,0)" xlink:href="#aA"/><use transform="matrix(0.05,0,0,0.05,37.9,0)" xlink:href="#ao"/><use transform="matrix(0.05,0,0,0.05,42.9,0)" xlink:href="#ar"/></g><g id="ai"><use transform="matrix(0.05,0,0,0.05,0,0)" xlink:href="#al"/><use transform="matrix(0.05,0,0,0.05,12.950000000000001,0)" xlink:href="#ap"/><use transform="matrix(0.05,0,0,0.05,22.950000000000003,0)" xlink:href="#av"/><use transform="matrix(0.05,0,0,0.05,32.95,0)" xlink:href="#ao"/><use transform="matrix(0.05,0,0,0.05,37.95,0)" xlink:href="#aA"/><use transform="matrix(0.05,0,0,0.05,47.95,0)" xlink:href="#aw"/><use transform="matrix(0.05,0,0,0.05,51.900000000000006,0)" xlink:href="#av"/></g><g id="aj"><use transform="matrix(0.05,0,0,0.05,0,0)" xlink:href="#at"/><use transform="matrix(0.05,0,0,0.05,5,0)" xlink:href="#an"/><use transform="matrix(0.05,0,0,0.05,14,0)" xlink:href="#an"/><use transform="matrix(0.05,0,0,0.05,23,0)" xlink:href="#am"/><use transform="matrix(0.05,0,0,0.05,33,0)" xlink:href="#ar"/></g><path fill="#333" d="M140-251c81 0 123 46 123 126C263-46 219 4 140 4 59 4 17-45 17-125s42-126 123-126zm0 227c63 0 89-41 89-101s-29-99-89-99c-61 0-89 39-89 99S79-25 140-24" id="bg"/><path fill="#333" d="M206 0h-36l-40-164L89 0H53L-1-190h32L70-26l43-164h34l41 164 42-164h31" id="bh"/><g id="ak"><use transform="matrix(0.05,0,0,0.05,0,0)" xlink:href="#bg"/><use transform="matrix(0.05,0,0,0.05,14,0)" xlink:href="#bh"/><use transform="matrix(0.05,0,0,0.05,26.950000000000003,0)" xlink:href="#av"/></g></defs></g></svg>